<svg xmlns="http://www.w3.org/2000/svg" width="100px" height="100px" viewBox="0 0 24 24" fill="none" stroke="black" stroke-width="1" stroke-linecap="round" stroke-linejoin="round">
  <g>
  <defs>
    <linearGradient id="grad1" x1="0%" y1="0%" x2="150%" y2="0%" gradientTransform="rotate(45)">
      <stop offset="15%" style="stop-color: rgb(170, 57, 84); stop-opacity: 1;"></stop>
      <stop offset="50%" style="stop-color: rgb(222, 112, 80); stop-opacity: 1;"></stop>
      <stop offset="85%" style="stop-color: rgb(249, 248, 113); stop-opacity: 1;"></stop>
    </linearGradient>
    <mask id="circle">
      <rect x="-2" y="-2" width="28" height="28" fill="white"></rect>
      <circle cx="12" cy="12" r="3" fill="black"></circle>
    </mask>
  </defs>
  <path id="mainShape" fill="url(#grad1)" d="M19.4 15a1.65 1.65 0 0 0 .33 1.82l.06.06a2 2 0 0 1 0 2.83 2 2 0 0 1-2.83 0l-.06-.06a1.65 1.65 0 0 0-1.82-.33 1.65 1.65 0 0 0-1 1.51V21a2 2 0 0 1-2 2 2 2 0 0 1-2-2v-.09A1.65 1.65 0 0 0 9 19.4a1.65 1.65 0 0 0-1.82.33l-.06.06a2 2 0 0 1-2.83 0 2 2 0 0 1 0-2.83l.06-.06a1.65 1.65 0 0 0 .33-1.82 1.65 1.65 0 0 0-1.51-1H3a2 2 0 0 1-2-2 2 2 0 0 1 2-2h.09A1.65 1.65 0 0 0 4.6 9a1.65 1.65 0 0 0-.33-1.82l-.06-.06a2 2 0 0 1 0-2.83 2 2 0 0 1 2.83 0l.06.06a1.65 1.65 0 0 0 1.82.33H9a1.65 1.65 0 0 0 1-1.51V3a2 2 0 0 1 2-2 2 2 0 0 1 2 2v.09a1.65 1.65 0 0 0 1 1.51 1.65 1.65 0 0 0 1.82-.33l.06-.06a2 2 0 0 1 2.83 0 2 2 0 0 1 0 2.83l-.06.06a1.65 1.65 0 0 0-.33 1.82V9a1.65 1.65 0 0 0 1.51 1H21a2 2 0 0 1 2 2 2 2 0 0 1-2 2h-.09a1.65 1.65 0 0 0-1.51 1z" mask="url(#circle)"></path>
  <circle cx="12" cy="12" r="4">
  </circle>
  </g>
</svg>